<?xml version="1.0" encoding="iso-8859-1"?>
<!-- Uploaded to: SVG Repo, www.svgrepo.com, Generator: SVG Repo Mixer Tools -->
<!DOCTYPE svg PUBLIC "-//W3C//DTD SVG 1.1//EN" "http://www.w3.org/Graphics/SVG/1.1/DTD/svg11.dtd">
<svg fill="#000000" height="800px" width="800px" version="1.1" id="Capa_1" xmlns="http://www.w3.org/2000/svg" xmlns:xlink="http://www.w3.org/1999/xlink" 
	 viewBox="0 0 179.242 179.242" xml:space="preserve">
<g>
	<path d="M89.722,91.433c25.208,0,45.716-20.508,45.716-45.716S114.93,0,89.722,0S44.006,20.508,44.006,45.716
		S64.514,91.433,89.722,91.433z M89.722,10c12.902,0,24.226,6.877,30.504,17.157H99.439c-1.29-4.313-5.284-7.459-10.017-7.459
		c-4.733,0-8.727,3.146-10.017,7.459H59.218C65.496,16.877,76.821,10,89.722,10z M56.312,33.107c0.162,0.027,0.326,0.05,0.495,0.05
		h22.597c1.29,4.313,5.284,7.459,10.017,7.459c4.733,0,8.727-3.146,10.017-7.459h23.198c0.17,0,0.333-0.023,0.496-0.05
		c1.486,3.924,2.306,8.172,2.306,12.609c0,19.694-16.022,35.716-35.716,35.716S54.006,65.41,54.006,45.716
		C54.006,41.279,54.826,37.031,56.312,33.107z"/>
	<path d="M145.643,153.768l-3.869-32.308c-2.001-16.718-16.208-29.326-33.046-29.326H70.181c-17.012,0-31.235,12.752-33.085,29.663
		l-3.523,32.201c-0.703,6.423,1.368,12.865,5.681,17.675c4.313,4.81,10.491,7.569,16.951,7.569h66.833
		c6.504,0,12.711-2.791,17.029-7.656C144.383,166.721,146.416,160.227,145.643,153.768z M132.586,164.949
		c-2.421,2.728-5.901,4.293-9.549,4.293H56.205c-3.676,0-7.052-1.507-9.506-4.244c-2.454-2.737-3.585-6.258-3.186-9.912
		l3.523-32.201c1.22-11.149,10.13-19.707,21.113-20.656v17.581c-2.616,1.154-4.445,3.767-4.445,6.81
		c0,4.111,3.333,7.445,7.445,7.445c4.112,0,7.445-3.333,7.445-7.445c0-3.043-1.828-5.656-4.445-6.811v-17.676h29.538v19.447
		c-6.819,1.393-11.965,7.438-11.965,14.662v11.807c0,1.657,1.343,3,3,3h4.643c1.657,0,3-1.343,3-3s-1.343-3-3-3h-1.643v-8.807
		c0-4.943,4.021-8.965,8.965-8.965s8.965,4.021,8.965,8.965v8.807h-1.643c-1.657,0-3,1.343-3,3s1.343,3,3,3h4.643
		c1.657,0,3-1.343,3-3v-11.807c0-7.224-5.146-13.269-11.965-14.662v-19.402c11.352,0.467,20.795,9.096,22.157,20.47l3.869,32.308
		C136.148,158.579,135.007,162.221,132.586,164.949z"/>
	<path d="M75.391,49.051c0.79,0,1.56-0.32,2.13-0.88c0.55-0.56,0.87-1.34,0.87-2.12c0-0.79-0.32-1.57-0.88-2.13
		c-1.12-1.11-3.12-1.11-4.24,0c-0.56,0.56-0.88,1.34-0.88,2.13c0,0.78,0.32,1.56,0.88,2.12S74.601,49.051,75.391,49.051z"/>
	<path d="M104.051,49.051c0.79,0,1.57-0.32,2.12-0.88c0.56-0.56,0.88-1.33,0.88-2.12s-0.32-1.57-0.88-2.13
		c-1.11-1.11-3.12-1.11-4.24,0c-0.56,0.56-0.88,1.33-0.88,2.13c0,0.79,0.32,1.56,0.88,2.12
		C102.491,48.731,103.261,49.051,104.051,49.051z"/>
	<path d="M83.735,69.247h11.976c0.69,0,1.25-0.56,1.25-1.25v-1.174c0-0.69-0.56-1.25-1.25-1.25H83.735c-0.69,0-1.25,0.56-1.25,1.25
		v1.174C82.485,68.688,83.045,69.247,83.735,69.247z"/>
</g>
</svg>